<?xml version="1.0" standalone="no"?>
<!DOCTYPE svg PUBLIC "-//W3C//DTD SVG 20010904//EN"
 "http://www.w3.org/TR/2001/REC-SVG-20010904/DTD/svg10.dtd">
<svg version="1.0" xmlns="http://www.w3.org/2000/svg"
 width="200.000000pt" height="200.000000pt" viewBox="0 0 200.000000 200.000000"
 preserveAspectRatio="xMidYMid meet">
<metadata>
Created by potrace 1.14, written by Peter Selinger 2001-2017
</metadata>
<g transform="translate(0.000000,200.000000) scale(0.100000,-0.100000)"
fill="#000000" stroke="none">
<path d="M1879 1458 c-13 -18 -26 -35 -29 -38 -3 -3 -93 -122 -200 -265 -107
-143 -198 -264 -202 -270 -5 -5 -65 -85 -133 -176 l-123 -166 -4 -251 c-2
-138 -1 -249 4 -246 7 5 686 906 703 933 8 14 18 511 10 511 -2 0 -14 -15 -26
-32z"/>
<path d="M1333 1458 c-22 -25 -674 -894 -688 -917 -8 -14 -19 -511 -11 -511 2
0 164 213 359 473 l356 473 3 252 c2 139 3 252 2 252 0 0 -10 -10 -21 -22z"/>
<path d="M523 1078 c-158 -211 -319 -425 -357 -476 l-69 -93 -3 -250 c-2 -137
-1 -249 1 -249 3 0 164 213 359 473 l354 472 4 253 c2 138 3 252 1 252 -1 0
-132 -172 -290 -382z"/>
</g>
</svg>
