<svg id="Layer_2" data-name="Layer 2" xmlns="http://www.w3.org/2000/svg" viewBox="0 0 61 61"><defs><style>.cls-1{fill:#32cb8f;}.cls-2{fill:#fff;}</style></defs><title>iso-logo-small</title><rect class="cls-1" width="61" height="61" rx="3"/><path class="cls-2" d="M15.40283,41.37354V19.62646h2.91992V41.37354Z"/><path class="cls-2" d="M29.0083,27.30029V24.34912c0-1.74023-.83887-2.42334-2.33008-2.42334s-2.32959.68311-2.32959,2.42334v1.49121c0,1.30469.46631,1.77051,1.7085,2.48535l2.82715,1.55323c1.86426,1.05615,3.04492,2.1123,3.04492,4.19384v3.01368c0,3.26171-1.89551,4.53515-5.18848,4.53515h-.0625c-3.293,0-5.188-1.24219-5.188-4.53515V33.38916h2.8584v3.2002c0,1.709.83838,2.48535,2.36084,2.48535s2.36133-.77637,2.36133-2.48535v-1.709c0-1.30469-.46582-1.86377-1.74023-2.57812l-2.7959-1.55371c-1.98828-1.14942-3.04444-2.08155-3.04444-4.16309V23.852c0-3.13818,2.17481-4.47363,5.15772-4.47363h.06152c2.98242,0,5.15723,1.33545,5.15723,4.47363v3.44824Z"/><path class="cls-2" d="M40.06689,19.37842h.249c3.293,0,5.28125,1.398,5.28125,4.59765V37.02393c0,3.20019-1.98828,4.59765-5.28125,4.59765h-.249c-3.293,0-5.28125-1.39746-5.28125-4.59765V23.97607C34.78564,20.74512,36.77393,19.37842,40.06689,19.37842Zm.125,19.665c1.61524,0,2.48536-.65235,2.48536-2.57813V24.53516c0-1.92627-.87012-2.57862-2.48536-2.57862-1.61621,0-2.48535.65235-2.48535,2.57862V36.46533C37.70654,38.39111,38.57568,39.04346,40.19189,39.04346Z"/></svg>
