<svg width="270" height="41" viewBox="0 0 270 41" fill="none" xmlns="http://www.w3.org/2000/svg">
<path d="M5.49387 0.691891C5.4698 0.773106 5.46178 6.95556 5.4698 14.4374L5.49387 28.0409L7.16215 28.0713L8.82242 28.0916V16.4678V4.84398H12.8568C18.8001 4.84398 20.332 5.03687 22.6419 6.05205C23.1151 6.26524 23.5884 6.37691 24.3423 6.46827C26.7084 6.74237 28.5611 7.50376 29.7081 8.67122C30.5422 9.52397 30.5422 9.53412 30.2856 8.97577C29.8204 7.96059 29.3071 7.12814 28.4489 6.00129C26.0507 2.83392 23.6766 1.50404 19.2091 0.823864C17.7333 0.590374 5.55803 0.478703 5.49387 0.691891Z" fill="url(#paint0_linear)"/>
<path d="M0 20.6301V33.6752H8.57404C17.0679 33.6752 18.4474 33.6346 19.8911 33.3199C22.8668 32.6702 24.7516 30.9545 26.059 27.6856C26.829 25.7669 27.1257 24.3964 27.2701 22.0615C27.4225 19.7469 27.2059 17.3612 26.6926 15.5034C26.2595 13.9502 26.2515 13.9401 25.4895 13.6964C24.5832 13.3919 23.9656 13.2802 22.7384 13.199L21.6958 13.1381L22.0246 13.5847C22.8507 14.7218 23.4924 16.275 23.7571 17.7673C23.9977 19.1276 23.9977 22.1427 23.749 23.5234C23.4282 25.3609 22.5861 27.1374 21.6156 28.0612C20.2681 29.3404 18.8886 29.5129 9.56859 29.5129H3.44886L3.40876 29.2795C3.3847 29.1576 3.37668 25.1984 3.3847 20.4778L3.40876 11.8995L3.91406 11.8691L4.41134 11.8386V9.71691V7.58503H2.20567H0V20.6301Z" fill="#8ABFC7"/>
<path d="M9.88099 9.68644L9.90506 11.798L16.9231 11.8589C21.952 11.8995 24.1096 11.9503 24.5347 12.0417C25.3528 12.2142 26.4516 12.6305 26.7885 12.8944C27.2777 13.27 27.8392 14.001 28.2322 14.7623C29.0823 16.3866 29.4433 18.1429 29.4433 20.5692C29.4433 26.6501 27.6547 31.3707 24.27 34.1929C23.4679 34.8629 22.6659 35.2893 21.5189 35.6446C19.5057 36.2842 18.0059 36.4162 12.7764 36.4162H8.82227V35.7055V34.9949L7.162 35.0152L5.49372 35.0457L5.46965 37.807L5.45361 40.5784H11.7017C17.8775 40.5784 18.6395 40.5479 20.4522 40.2129C24.1256 39.5328 26.7564 37.8273 28.8899 34.731C31.4885 30.9443 32.8039 26.2034 32.8039 20.6199C32.8039 17.9805 32.5152 16.2242 31.689 13.8487C31.3762 12.9249 30.4058 11.2701 29.716 10.4478C28.5049 9.01642 27.374 8.37685 25.3447 7.95048C23.8449 7.64592 22.4012 7.58501 16.1451 7.58501H9.86495L9.88099 9.68644Z" fill="url(#paint1_linear)"/>
<path d="M53.39 12.06C55.59 12.06 57.52 12.49 59.18 13.35C60.86 14.21 62.15 15.44 63.05 17.04C63.97 18.62 64.43 20.46 64.43 22.56C64.43 24.66 63.97 26.5 63.05 28.08C62.15 29.64 60.86 30.85 59.18 31.71C57.52 32.57 55.59 33 53.39 33H46.07V12.06H53.39ZM53.24 29.43C55.44 29.43 57.14 28.83 58.34 27.63C59.54 26.43 60.14 24.74 60.14 22.56C60.14 20.38 59.54 18.68 58.34 17.46C57.14 16.22 55.44 15.6 53.24 15.6H50.27V29.43H53.24ZM69.7039 14.4C68.9639 14.4 68.3439 14.17 67.8439 13.71C67.3639 13.23 67.1239 12.64 67.1239 11.94C67.1239 11.24 67.3639 10.66 67.8439 10.2C68.3439 9.72 68.9639 9.48 69.7039 9.48C70.4439 9.48 71.0539 9.72 71.5339 10.2C72.0339 10.66 72.2839 11.24 72.2839 11.94C72.2839 12.64 72.0339 13.23 71.5339 13.71C71.0539 14.17 70.4439 14.4 69.7039 14.4ZM71.7739 16.38V33H67.5739V16.38H71.7739ZM74.8435 24.63C74.8435 22.95 75.1735 21.46 75.8335 20.16C76.5135 18.86 77.4235 17.86 78.5635 17.16C79.7235 16.46 81.0135 16.11 82.4335 16.11C83.6735 16.11 84.7535 16.36 85.6735 16.86C86.6135 17.36 87.3635 17.99 87.9235 18.75V16.38H92.1535V33H87.9235V30.57C87.3835 31.35 86.6335 32 85.6735 32.52C84.7335 33.02 83.6435 33.27 82.4035 33.27C81.0035 33.27 79.7235 32.91 78.5635 32.19C77.4235 31.47 76.5135 30.46 75.8335 29.16C75.1735 27.84 74.8435 26.33 74.8435 24.63ZM87.9235 24.69C87.9235 23.67 87.7235 22.8 87.3235 22.08C86.9235 21.34 86.3835 20.78 85.7035 20.4C85.0235 20 84.2935 19.8 83.5135 19.8C82.7335 19.8 82.0135 19.99 81.3535 20.37C80.6935 20.75 80.1535 21.31 79.7335 22.05C79.3335 22.77 79.1335 23.63 79.1335 24.63C79.1335 25.63 79.3335 26.51 79.7335 27.27C80.1535 28.01 80.6935 28.58 81.3535 28.98C82.0335 29.38 82.7535 29.58 83.5135 29.58C84.2935 29.58 85.0235 29.39 85.7035 29.01C86.3835 28.61 86.9235 28.05 87.3235 27.33C87.7235 26.59 87.9235 25.71 87.9235 24.69ZM105.466 16.14C107.446 16.14 109.046 16.77 110.266 18.03C111.486 19.27 112.096 21.01 112.096 23.25V33H107.896V23.82C107.896 22.5 107.566 21.49 106.906 20.79C106.246 20.07 105.346 19.71 104.206 19.71C103.046 19.71 102.126 20.07 101.446 20.79C100.786 21.49 100.456 22.5 100.456 23.82V33H96.2555V16.38H100.456V18.45C101.016 17.73 101.726 17.17 102.586 16.77C103.466 16.35 104.426 16.14 105.466 16.14ZM115.01 24.63C115.01 22.95 115.34 21.46 116 20.16C116.68 18.86 117.59 17.86 118.73 17.16C119.89 16.46 121.18 16.11 122.6 16.11C123.84 16.11 124.92 16.36 125.84 16.86C126.78 17.36 127.53 17.99 128.09 18.75V16.38H132.32V33H128.09V30.57C127.55 31.35 126.8 32 125.84 32.52C124.9 33.02 123.81 33.27 122.57 33.27C121.17 33.27 119.89 32.91 118.73 32.19C117.59 31.47 116.68 30.46 116 29.16C115.34 27.84 115.01 26.33 115.01 24.63ZM128.09 24.69C128.09 23.67 127.89 22.8 127.49 22.08C127.09 21.34 126.55 20.78 125.87 20.4C125.19 20 124.46 19.8 123.68 19.8C122.9 19.8 122.18 19.99 121.52 20.37C120.86 20.75 120.32 21.31 119.9 22.05C119.5 22.77 119.3 23.63 119.3 24.63C119.3 25.63 119.5 26.51 119.9 27.27C120.32 28.01 120.86 28.58 121.52 28.98C122.2 29.38 122.92 29.58 123.68 29.58C124.46 29.58 125.19 29.39 125.87 29.01C126.55 28.61 127.09 28.05 127.49 27.33C127.89 26.59 128.09 25.71 128.09 24.69ZM157.242 12.3V33H155.142V16.47L147.762 33H146.232L138.852 16.53V33H136.752V12.3H138.972L146.982 30.24L154.992 12.3H157.242ZM161.045 24.78C161.045 23.1 161.375 21.63 162.035 20.37C162.715 19.09 163.645 18.11 164.825 17.43C166.025 16.73 167.375 16.38 168.875 16.38C170.435 16.38 171.775 16.74 172.895 17.46C174.035 18.18 174.855 19.1 175.355 20.22V16.62H177.455V33H175.355V29.37C174.835 30.49 174.005 31.42 172.865 32.16C171.745 32.88 170.405 33.24 168.845 33.24C167.365 33.24 166.025 32.89 164.825 32.19C163.645 31.49 162.715 30.5 162.035 29.22C161.375 27.94 161.045 26.46 161.045 24.78ZM175.355 24.81C175.355 23.49 175.085 22.33 174.545 21.33C174.005 20.33 173.265 19.56 172.325 19.02C171.405 18.48 170.385 18.21 169.265 18.21C168.105 18.21 167.065 18.47 166.145 18.99C165.225 19.51 164.495 20.27 163.955 21.27C163.435 22.25 163.175 23.42 163.175 24.78C163.175 26.12 163.435 27.3 163.955 28.32C164.495 29.32 165.225 30.09 166.145 30.63C167.065 31.15 168.105 31.41 169.265 31.41C170.385 31.41 171.405 31.14 172.325 30.6C173.265 30.06 174.005 29.29 174.545 28.29C175.085 27.29 175.355 26.13 175.355 24.81ZM184.35 19.53C184.81 18.51 185.51 17.72 186.45 17.16C187.41 16.6 188.58 16.32 189.96 16.32V18.51H189.39C187.87 18.51 186.65 18.92 185.73 19.74C184.81 20.56 184.35 21.93 184.35 23.85V33H182.25V16.62H184.35V19.53ZM195.849 18.39V28.56C195.849 29.56 196.039 30.25 196.419 30.63C196.799 31.01 197.469 31.2 198.429 31.2H200.349V33H198.099C196.619 33 195.519 32.66 194.799 31.98C194.079 31.28 193.719 30.14 193.719 28.56V18.39H191.439V16.62H193.719V12.51H195.849V16.62H200.349V18.39H195.849ZM204.862 13.53C204.442 13.53 204.082 13.38 203.782 13.08C203.482 12.78 203.332 12.41 203.332 11.97C203.332 11.53 203.482 11.17 203.782 10.89C204.082 10.59 204.442 10.44 204.862 10.44C205.282 10.44 205.642 10.59 205.942 10.89C206.242 11.17 206.392 11.53 206.392 11.97C206.392 12.41 206.242 12.78 205.942 13.08C205.642 13.38 205.282 13.53 204.862 13.53ZM205.912 16.62V33H203.812V16.62H205.912ZM218.348 16.32C220.308 16.32 221.908 16.93 223.148 18.15C224.388 19.35 225.008 21.1 225.008 23.4V33H222.938V23.64C222.938 21.86 222.488 20.5 221.588 19.56C220.708 18.62 219.498 18.15 217.958 18.15C216.378 18.15 215.118 18.65 214.178 19.65C213.238 20.65 212.768 22.12 212.768 24.06V33H210.668V16.62H212.768V19.41C213.288 18.41 214.038 17.65 215.018 17.13C215.998 16.59 217.108 16.32 218.348 16.32ZM228.692 24.78C228.692 23.1 229.022 21.63 229.682 20.37C230.362 19.09 231.292 18.11 232.472 17.43C233.672 16.73 235.022 16.38 236.522 16.38C238.082 16.38 239.422 16.74 240.542 17.46C241.682 18.18 242.502 19.1 243.002 20.22V16.62H245.102V33H243.002V29.37C242.482 30.49 241.652 31.42 240.512 32.16C239.392 32.88 238.052 33.24 236.492 33.24C235.012 33.24 233.672 32.89 232.472 32.19C231.292 31.49 230.362 30.5 229.682 29.22C229.022 27.94 228.692 26.46 228.692 24.78ZM243.002 24.81C243.002 23.49 242.732 22.33 242.192 21.33C241.652 20.33 240.912 19.56 239.972 19.02C239.052 18.48 238.032 18.21 236.912 18.21C235.752 18.21 234.712 18.47 233.792 18.99C232.872 19.51 232.142 20.27 231.602 21.27C231.082 22.25 230.822 23.42 230.822 24.78C230.822 26.12 231.082 27.3 231.602 28.32C232.142 29.32 232.872 30.09 233.792 30.63C234.712 31.15 235.752 31.41 236.912 31.41C238.032 31.41 239.052 31.14 239.972 30.6C240.912 30.06 241.652 29.29 242.192 28.29C242.732 27.29 243.002 26.13 243.002 24.81Z" fill="#8ABFC7"/>
<defs>
<linearGradient id="paint0_linear" x1="17.9514" y1="28.0916" x2="17.9514" y2="0.578388" gradientUnits="userSpaceOnUse">
<stop stop-color="#8ABFC7"/>
<stop offset="1" stop-color="#BE63A7"/>
</linearGradient>
<linearGradient id="paint1_linear" x1="19.1288" y1="40.5784" x2="19.1288" y2="7.58501" gradientUnits="userSpaceOnUse">
<stop stop-color="#BE63A7"/>
<stop offset="1" stop-color="#8ABFC7"/>
</linearGradient>
</defs>
</svg>
